<?xml version="1.0" encoding="UTF-8"?>
<svg id="Layer_1" data-name="Layer 1" xmlns="http://www.w3.org/2000/svg" xmlns:xlink="http://www.w3.org/1999/xlink" viewBox="0 0 1137.5 339.88">
  <defs>
    <style>
      .cls-1 {
        fill: #fff;
      }

      .cls-2 {
        fill: #202020;
      }
    </style>
    <symbol id="Music" viewBox="0 0 61.9 60.62">
      <path d="m61.83,46.3h.06V.16l.02-.16h-.02s0,0,0,0h-.05S16.94,6.02,16.94,6.02h0v36.46c-1.78-.57-3.78-.8-5.86-.6C4.48,42.53-.47,47.22.03,52.38c.5,5.15,6.25,8.81,12.85,8.17,6.6-.64,11.54-5.34,11.04-10.49,0-.09-.03-.17-.04-.26h.06v-31.63l30.95-4.52v25.33c-1.78-.57-3.78-.8-5.86-.6-6.6.64-11.54,5.34-11.04,10.49.5,5.15,6.25,8.81,12.85,8.17,6.6-.64,11.54-5.34,11.04-10.49,0-.09-.03-.17-.04-.26Z"/>
    </symbol>
  </defs>
  <g>
    <path class="cls-1" d="m597.81,337.38c-13.26,0-20.02-10.82-27.18-22.27-7.56-12.1-15.38-24.62-31.42-24.62s-23.86,12.51-31.42,24.62c-7.16,11.45-13.92,22.27-27.18,22.27-16.78,0-19.92-6.36-25.13-16.89-3.16-6.39-7.09-14.34-15.13-22.39-8.05-8.04-16-11.97-22.39-15.13-10.53-5.2-16.89-8.34-16.89-25.12,0-13.26,10.81-20.02,22.26-27.18,12.1-7.56,24.62-15.38,24.62-31.42s-12.51-23.86-24.61-31.42c-11.45-7.16-22.27-13.92-22.27-27.18s10.81-20.02,22.27-27.18c12.1-7.56,24.61-15.39,24.61-31.42,0-14.46-13.43-27.7-25.28-39.38-9.78-9.64-19.02-18.75-19.05-26.43,0-2.7,1.16-5.19,3.58-7.61,2.41-2.41,4.88-3.58,7.57-3.58,7.68,0,16.8,9.25,26.46,19.04,11.68,11.85,24.92,25.28,39.38,25.28,16.04,0,23.86-12.51,31.42-24.61,7.16-11.45,13.92-22.27,27.18-22.27s20.02,10.81,27.18,22.27c7.56,12.1,15.38,24.61,31.42,24.61s23.86-12.51,31.42-24.61c7.16-11.45,13.92-22.27,27.18-22.27,16.78,0,19.92,6.36,25.13,16.89,3.16,6.39,7.09,14.34,15.13,22.39,8.04,8.04,16,11.97,22.39,15.13,10.54,5.2,16.89,8.34,16.89,25.12,0,13.26-10.82,20.02-22.27,27.18-12.1,7.56-24.62,15.38-24.62,31.42s12.51,23.86,24.62,31.42c11.45,7.16,22.27,13.92,22.27,27.18s-12.05,21.71-23.7,30.35c-13.38,9.92-27.22,20.17-21.87,36.38,6.08,18.42,19.28,30.01,29.89,39.33,7.75,6.8,13.87,12.17,14.04,17.42.09,2.64-1.38,5.43-4.49,8.54-2.41,2.41-4.88,3.58-7.57,3.58-7.68,0-16.8-9.25-26.46-19.04-11.68-11.85-24.92-25.28-39.38-25.28-16.04,0-23.86,12.51-31.42,24.62-7.16,11.45-13.92,22.27-27.18,22.27Z"/>
    <path d="m656.4,5c15.23,0,17.79,5.18,22.89,15.5,3.24,6.56,7.27,14.71,15.61,23.05,8.34,8.34,16.49,12.36,23.05,15.6,10.32,5.1,15.5,7.66,15.5,22.88,0,11.88-9.77,17.99-21.09,25.06-12.09,7.56-25.79,16.12-25.79,33.54s13.7,25.98,25.79,33.54c11.32,7.07,21.09,13.18,21.09,25.06s-11.02,19.69-22.69,28.34c-13.44,9.96-28.67,21.25-22.76,39.17,6.29,19.07,19.78,30.91,30.62,40.42,7,6.15,13.05,11.46,13.19,15.62.06,1.88-1.2,4.13-3.76,6.69-2.55,2.55-4.53,2.84-5.8,2.84-6.64,0-15.81-9.3-24.68-18.3-12.03-12.2-25.66-26.02-41.16-26.02-17.42,0-25.98,13.7-33.54,25.79-7.07,11.32-13.18,21.09-25.06,21.09s-17.99-9.77-25.06-21.09c-7.56-12.09-16.12-25.79-33.54-25.79s-25.99,13.7-33.54,25.79c-7.07,11.32-13.18,21.09-25.06,21.09-15.23,0-17.79-5.18-22.89-15.5-3.24-6.56-7.27-14.71-15.61-23.05-8.34-8.34-16.49-12.36-23.05-15.6-10.32-5.1-15.5-7.66-15.5-22.88,0-11.88,9.77-17.99,21.09-25.06,12.09-7.56,25.79-16.12,25.79-33.54s-13.7-25.98-25.79-33.54c-11.32-7.07-21.09-13.18-21.09-25.06s9.77-17.99,21.09-25.06c12.09-7.56,25.79-16.12,25.79-33.54,0-15.5-13.83-29.13-26.02-41.16-8.99-8.86-18.28-18.02-18.3-24.65,0-1.28.29-3.27,2.84-5.83,2.55-2.55,4.53-2.84,5.8-2.84,6.64,0,15.81,9.3,24.68,18.3,12.03,12.2,25.66,26.02,41.16,26.02,17.42,0,25.98-13.7,33.54-25.79,7.07-11.32,13.18-21.09,25.06-21.09s17.99,9.77,25.06,21.09c7.56,12.09,16.12,25.79,33.54,25.79s25.99-13.7,33.54-25.79c7.07-11.32,13.18-21.09,25.06-21.09m0-5c-29.3,0-29.3,46.88-58.6,46.88S568.49,0,539.19,0s-29.3,46.88-58.6,46.88c-25.03,0-47.04-44.32-65.83-44.32-3.21,0-6.32,1.29-9.34,4.31-20.72,20.72,40.02,45.88,40.02,75.18s-46.88,29.3-46.88,58.6,46.88,29.3,46.88,58.6-46.88,29.3-46.88,58.6,19.3,21.3,40.01,42.02c20.72,20.72,12.73,40.02,42.03,40.02s29.3-46.88,58.6-46.88,29.3,46.88,58.6,46.88,29.3-46.88,58.6-46.88c25.03,0,47.04,44.32,65.83,44.32,3.21,0,6.32-1.29,9.34-4.31,20.72-20.72-26.01-28.96-38.84-67.83-9.18-27.83,45.7-36.64,45.7-65.95s-46.88-29.3-46.88-58.6,46.88-29.3,46.88-58.6-19.3-21.3-40.01-42.02c-20.72-20.72-12.73-40.02-42.03-40.02h0Z"/>
  </g>
  <polygon class="cls-2" points="0 171.53 352.72 171.53 352.72 183.09 375.5 169.94 352.72 156.79 352.72 168.35 0 168.35 0 171.53"/>
  <polygon class="cls-2" points="762 171.53 1114.72 171.53 1114.72 183.09 1137.5 169.94 1114.72 156.79 1114.72 168.35 762 168.35 762 171.53"/>
  <use width="61.9" height="60.62" transform="translate(537.5 139.44)" xlink:href="#Music"/>
</svg>